<?xml version="1.0" encoding="UTF-8" standalone="no"?><svg xmlns="http://www.w3.org/2000/svg" xmlns:xlink="http://www.w3.org/1999/xlink" contentScriptType="application/ecmascript" contentStyleType="text/css" height="590px" preserveAspectRatio="none" style="width:653px;height:590px;" version="1.1" viewBox="0 0 653 590" width="653px" zoomAndPan="magnify"><defs><filter height="300%" id="f1jf4wlu6bk0ms" width="300%" x="-1" y="-1"><feGaussianBlur result="blurOut" stdDeviation="2.0"/><feColorMatrix in="blurOut" result="blurOut2" type="matrix" values="0 0 0 0 0 0 0 0 0 0 0 0 0 0 0 0 0 0 .4 0"/><feOffset dx="4.0" dy="4.0" in="blurOut2" result="blurOut3"/><feBlend in="SourceGraphic" in2="blurOut3" mode="normal"/></filter></defs><g><!--cluster docker--><path d="M306.5,23 C306.5,20 308.5,18 311.5,18 C314.5,18 316.5,20 316.5,23 C316.5,20 318.5,18 321.5,18 C324.5,18 326.5,20 326.5,23 C326.5,20 328.5,18 331.5,18 C334.5,18 336.5,20 336.5,23 C336.5,20 338.5,18 341.5,18 C344.5,18 346.5,20 346.5,23 C346.5,20 348.5,18 351.5,18 C354.5,18 356.5,20 356.5,23 C356.5,20 358.5,18 361.5,18 C364.5,18 366.5,20 366.5,23 C366.5,20 368.5,18 371.5,18 C374.5,18 376.5,20 376.5,23 C376.5,20 378.5,18 381.5,18 C384.5,18 386.5,20 386.5,23 C386.5,20 388.5,18 391.5,18 C394.5,18 396.5,20 396.5,23 C396.5,20 398.5,18 401.5,18 C404.5,18 406.5,20 406.5,23 C406.5,20 408.5,18 411.5,18 C414.5,18 416.5,20 416.5,23 C416.5,20 418.5,18 421.5,18 C424.5,18 426.5,20 426.5,23 C426.5,20 428.5,18 431.5,18 C434.5,18 436.5,20 436.5,23 C436.5,20 438.5,18 441.5,18 C444.5,18 446.5,20 446.5,23 C446.5,20 448.5,18 451.5,18 C454.5,18 456.5,20 456.5,23 C456.5,20 458.5,18 461.5,18 C464.5,18 466.5,20 466.5,23 C466.5,20 468.5,18 471.5,18 C474.5,18 476.5,20 476.5,23 C476.5,20 478.5,18 481.5,18 C484.5,18 486.5,20 486.5,23 C486.5,20 488.5,18 491.5,18 C494.5,18 496.5,20 496.5,23 C496.5,20 498.5,18 501.5,18 C504.5,18 506.5,20 506.5,23 C506.5,20 508.5,18 511.5,18 C514.5,18 516.5,20 516.5,23 C516.5,20 518.5,18 521.5,18 C524.5,18 526.5,20 526.5,23 C526.5,20 528.5,18 531.5,18 C534.5,18 536.5,20 536.5,23 C536.5,20 538.5,18 541.5,18 C544.5,18 546.5,20 546.5,23 C546.5,20 548.5,18 551.5,18 C554.5,18 556.5,20 556.5,23 C556.5,20 558.5,18 561.5,18 C564.5,18 566.5,20 566.5,23 C566.5,20 568.5,18 571.5,18 C574.5,18 576.5,20 576.5,23 C576.5,20 578.5,18 581.5,18 C584.5,18 586.5,20 586.5,23 C586.5,20 588.5,18 591.5,18 C594.5,18 596.5,20 596.5,23 C596.5,20 598.5,18 601.5,18 C604.5,18 606.5,20 606.5,23 C606.5,20 608.5,18 611.5,18 C614.5,18 616.5,20 616.5,23 C616.5,20 618.5,18 621.5,18 C624.5,18 626.5,20 626.5,23 C626.5,20 628.5,18 631.5,18 C634.5,18 636.5,20 636.5,23 C639.5,23 641.5,25 641.5,28 C641.5,31 639.5,33 636.5,33 C639.5,33 641.5,35 641.5,38 C641.5,41 639.5,43 636.5,43 C639.5,43 641.5,45 641.5,48 C641.5,51 639.5,53 636.5,53 C639.5,53 641.5,55 641.5,58 C641.5,61 639.5,63 636.5,63 C639.5,63 641.5,65 641.5,68 C641.5,71 639.5,73 636.5,73 C639.5,73 641.5,75 641.5,78 C641.5,81 639.5,83 636.5,83 C639.5,83 641.5,85 641.5,88 C641.5,91 639.5,93 636.5,93 C639.5,93 641.5,95 641.5,98 C641.5,101 639.5,103 636.5,103 C639.5,103 641.5,105 641.5,108 C641.5,111 639.5,113 636.5,113 C639.5,113 641.5,115 641.5,118 C641.5,121 639.5,123 636.5,123 C639.5,123 641.5,125 641.5,128 C641.5,131 639.5,133 636.5,133 C639.5,133 641.5,135 641.5,138 C641.5,141 639.5,143 636.5,143 C639.5,143 641.5,145 641.5,148 C641.5,151 639.5,153 636.5,153 C639.5,153 641.5,155 641.5,158 C641.5,161 639.5,163 636.5,163 C639.5,163 641.5,165 641.5,168 C641.5,171 639.5,173 636.5,173 C639.5,173 641.5,175 641.5,178 C641.5,181 639.5,183 636.5,183 C639.5,183 641.5,185 641.5,188 C641.5,191 639.5,193 636.5,193 C639.5,193 641.5,195 641.5,198 C641.5,201 639.5,203 636.5,203 C639.5,203 641.5,205 641.5,208 C641.5,211 639.5,213 636.5,213 C639.5,213 641.5,215 641.5,218 C641.5,221 639.5,223 636.5,223 C639.5,223 641.5,225 641.5,228 C641.5,231 639.5,233 636.5,233 C639.5,233 641.5,235 641.5,238 C641.5,241 639.5,243 636.5,243 C639.5,243 641.5,245 641.5,248 C641.5,251 639.5,253 636.5,253 C639.5,253 641.5,255 641.5,258 C641.5,261 639.5,263 636.5,263 C639.5,263 641.5,265 641.5,268 C641.5,271 639.5,273 636.5,273 C639.5,273 641.5,275 641.5,278 C641.5,281 639.5,283 636.5,283 C639.5,283 641.5,285 641.5,288 C641.5,291 639.5,293 636.5,293 C639.5,293 641.5,295 641.5,298 C641.5,301 639.5,303 636.5,303 C639.5,303 641.5,305 641.5,308 C641.5,311 639.5,313 636.5,313 C639.5,313 641.5,315 641.5,318 C641.5,321 639.5,323 636.5,323 C639.5,323 641.5,325 641.5,328 C641.5,331 639.5,333 636.5,333 C639.5,333 641.5,335 641.5,338 C641.5,341 639.5,343 636.5,343 C639.5,343 641.5,345 641.5,348 C641.5,351 639.5,353 636.5,353 C639.5,353 641.5,355 641.5,358 C641.5,361 639.5,363 636.5,363 C639.5,363 641.5,365 641.5,368 C641.5,371 639.5,373 636.5,373 C639.5,373 641.5,375 641.5,378 C641.5,381 639.5,383 636.5,383 C639.5,383 641.5,385 641.5,388 C641.5,391 639.5,393 636.5,393 C639.5,393 641.5,395 641.5,398 C641.5,401 639.5,403 636.5,403 C639.5,403 641.5,405 641.5,408 C641.5,411 639.5,413 636.5,413 C639.5,413 641.5,415 641.5,418 C641.5,421 639.5,423 636.5,423 C639.5,423 641.5,425 641.5,428 C641.5,431 639.5,433 636.5,433 C639.5,433 641.5,435 641.5,438 C641.5,441 639.5,443 636.5,443 C639.5,443 641.5,445 641.5,448 C641.5,451 639.5,453 636.5,453 C639.5,453 641.5,455 641.5,458 C641.5,461 639.5,463 636.5,463 C639.5,463 641.5,465 641.5,468 C641.5,471 639.5,473 636.5,473 C639.5,473 641.5,475 641.5,478 C641.5,481 639.5,483 636.5,483 C639.5,483 641.5,485 641.5,488 C641.5,491 639.5,493 636.5,493 C639.5,493 641.5,495 641.5,498 C641.5,501 639.5,503 636.5,503 C639.5,503 641.5,505 641.5,508 C641.5,511 639.5,513 636.5,513 C639.5,513 641.5,515 641.5,518 C641.5,521 639.5,523 636.5,523 C639.5,523 641.5,525 641.5,528 C641.5,531 639.5,533 636.5,533 C639.5,533 641.5,535 641.5,538 C641.5,541 639.5,543 636.5,543 C639.5,543 641.5,545 641.5,548 C641.5,551 639.5,553 636.5,553 C639.5,553 641.5,555 641.5,558 C641.5,561 639.5,563 636.5,563 C639.5,563 641.5,565 641.5,568 C641.5,571 639.5,573 636.5,573 C636.5,576 633.5,578 631.5,578 C628.5,578 626.5,576 626.5,573 C626.5,576 623.5,578 621.5,578 C618.5,578 616.5,576 616.5,573 C616.5,576 613.5,578 611.5,578 C608.5,578 606.5,576 606.5,573 C606.5,576 603.5,578 601.5,578 C598.5,578 596.5,576 596.5,573 C596.5,576 593.5,578 591.5,578 C588.5,578 586.5,576 586.5,573 C586.5,576 583.5,578 581.5,578 C578.5,578 576.5,576 576.5,573 C576.5,576 573.5,578 571.5,578 C568.5,578 566.5,576 566.5,573 C566.5,576 563.5,578 561.5,578 C558.5,578 556.5,576 556.5,573 C556.5,576 553.5,578 551.5,578 C548.5,578 546.5,576 546.5,573 C546.5,576 543.5,578 541.5,578 C538.5,578 536.5,576 536.5,573 C536.5,576 533.5,578 531.5,578 C528.5,578 526.5,576 526.5,573 C526.5,576 523.5,578 521.5,578 C518.5,578 516.5,576 516.5,573 C516.5,576 513.5,578 511.5,578 C508.5,578 506.5,576 506.5,573 C506.5,576 503.5,578 501.5,578 C498.5,578 496.5,576 496.5,573 C496.5,576 493.5,578 491.5,578 C488.5,578 486.5,576 486.5,573 C486.5,576 483.5,578 481.5,578 C478.5,578 476.5,576 476.5,573 C476.5,576 473.5,578 471.5,578 C468.5,578 466.5,576 466.5,573 C466.5,576 463.5,578 461.5,578 C458.5,578 456.5,576 456.5,573 C456.5,576 453.5,578 451.5,578 C448.5,578 446.5,576 446.5,573 C446.5,576 443.5,578 441.5,578 C438.5,578 436.5,576 436.5,573 C436.5,576 433.5,578 431.5,578 C428.5,578 426.5,576 426.5,573 C426.5,576 423.5,578 421.5,578 C418.5,578 416.5,576 416.5,573 C416.5,576 413.5,578 411.5,578 C408.5,578 406.5,576 406.5,573 C406.5,576 403.5,578 401.5,578 C398.5,578 396.5,576 396.5,573 C396.5,576 393.5,578 391.5,578 C388.5,578 386.5,576 386.5,573 C386.5,576 383.5,578 381.5,578 C378.5,578 376.5,576 376.5,573 C376.5,576 373.5,578 371.5,578 C368.5,578 366.5,576 366.5,573 C366.5,576 363.5,578 361.5,578 C358.5,578 356.5,576 356.5,573 C356.5,576 353.5,578 351.5,578 C348.5,578 346.5,576 346.5,573 C346.5,576 343.5,578 341.5,578 C338.5,578 336.5,576 336.5,573 C336.5,576 333.5,578 331.5,578 C328.5,578 326.5,576 326.5,573 C326.5,576 323.5,578 321.5,578 C318.5,578 316.5,576 316.5,573 C316.5,576 313.5,578 311.5,578 C308.5,578 306.5,576 306.5,573 C303.5,573 301.5,571 301.5,568 C301.5,565 303.5,563 306.5,563 C303.5,563 301.5,561 301.5,558 C301.5,555 303.5,553 306.5,553 C303.5,553 301.5,551 301.5,548 C301.5,545 303.5,543 306.5,543 C303.5,543 301.5,541 301.5,538 C301.5,535 303.5,533 306.5,533 C303.5,533 301.5,531 301.5,528 C301.5,525 303.5,523 306.5,523 C303.5,523 301.5,521 301.5,518 C301.5,515 303.5,513 306.5,513 C303.5,513 301.5,511 301.5,508 C301.5,505 303.5,503 306.5,503 C303.5,503 301.5,501 301.5,498 C301.5,495 303.5,493 306.5,493 C303.5,493 301.5,491 301.5,488 C301.5,485 303.5,483 306.5,483 C303.5,483 301.5,481 301.5,478 C301.5,475 303.5,473 306.5,473 C303.5,473 301.5,471 301.5,468 C301.5,465 303.5,463 306.5,463 C303.5,463 301.5,461 301.5,458 C301.5,455 303.5,453 306.5,453 C303.5,453 301.5,451 301.5,448 C301.5,445 303.5,443 306.5,443 C303.5,443 301.5,441 301.5,438 C301.5,435 303.5,433 306.5,433 C303.5,433 301.5,431 301.5,428 C301.5,425 303.5,423 306.5,423 C303.5,423 301.5,421 301.5,418 C301.5,415 303.5,413 306.5,413 C303.5,413 301.5,411 301.5,408 C301.5,405 303.5,403 306.5,403 C303.5,403 301.5,401 301.5,398 C301.5,395 303.5,393 306.5,393 C303.5,393 301.5,391 301.5,388 C301.5,385 303.5,383 306.5,383 C303.5,383 301.5,381 301.5,378 C301.5,375 303.5,373 306.5,373 C303.5,373 301.5,371 301.5,368 C301.5,365 303.5,363 306.5,363 C303.5,363 301.5,361 301.5,358 C301.5,355 303.5,353 306.5,353 C303.5,353 301.5,351 301.5,348 C301.5,345 303.5,343 306.5,343 C303.5,343 301.5,341 301.5,338 C301.5,335 303.5,333 306.5,333 C303.5,333 301.5,331 301.5,328 C301.5,325 303.5,323 306.5,323 C303.5,323 301.5,321 301.5,318 C301.5,315 303.5,313 306.5,313 C303.5,313 301.5,311 301.5,308 C301.5,305 303.5,303 306.5,303 C303.5,303 301.5,301 301.5,298 C301.5,295 303.5,293 306.5,293 C303.5,293 301.5,291 301.5,288 C301.5,285 303.5,283 306.5,283 C303.5,283 301.5,281 301.5,278 C301.5,275 303.5,273 306.5,273 C303.5,273 301.5,271 301.5,268 C301.5,265 303.5,263 306.5,263 C303.5,263 301.5,261 301.5,258 C301.5,255 303.5,253 306.5,253 C303.5,253 301.5,251 301.5,248 C301.5,245 303.5,243 306.5,243 C303.5,243 301.5,241 301.5,238 C301.5,235 303.5,233 306.5,233 C303.5,233 301.5,231 301.5,228 C301.5,225 303.5,223 306.5,223 C303.5,223 301.5,221 301.5,218 C301.5,215 303.5,213 306.5,213 C303.5,213 301.5,211 301.5,208 C301.5,205 303.5,203 306.5,203 C303.5,203 301.5,201 301.5,198 C301.5,195 303.5,193 306.5,193 C303.5,193 301.5,191 301.5,188 C301.5,185 303.5,183 306.5,183 C303.5,183 301.5,181 301.5,178 C301.5,175 303.5,173 306.5,173 C303.5,173 301.5,171 301.5,168 C301.5,165 303.5,163 306.5,163 C303.5,163 301.5,161 301.5,158 C301.5,155 303.5,153 306.5,153 C303.5,153 301.5,151 301.5,148 C301.5,145 303.5,143 306.5,143 C303.5,143 301.5,141 301.5,138 C301.5,135 303.5,133 306.5,133 C303.5,133 301.5,131 301.5,128 C301.5,125 303.5,123 306.5,123 C303.5,123 301.5,121 301.5,118 C301.5,115 303.5,113 306.5,113 C303.5,113 301.5,111 301.5,108 C301.5,105 303.5,103 306.5,103 C303.5,103 301.5,101 301.5,98 C301.5,95 303.5,93 306.5,93 C303.5,93 301.5,91 301.5,88 C301.5,85 303.5,83 306.5,83 C303.5,83 301.5,81 301.5,78 C301.5,75 303.5,73 306.5,73 C303.5,73 301.5,71 301.5,68 C301.5,65 303.5,63 306.5,63 C303.5,63 301.5,61 301.5,58 C301.5,55 303.5,53 306.5,53 C303.5,53 301.5,51 301.5,48 C301.5,45 303.5,43 306.5,43 C303.5,43 301.5,41 301.5,38 C301.5,35 303.5,33 306.5,33 C303.5,33 301.5,31 301.5,28 C301.5,25 303.5,23 306.5,23 " fill="#FFFFFF" filter="url(#f1jf4wlu6bk0ms)" style="stroke: #000000; stroke-width: 1.5;"/><text fill="#000000" font-family="sans-serif" font-size="14" font-weight="bold" lengthAdjust="spacingAndGlyphs" textLength="109" x="416" y="42.5352">Docker for Mac</text><!--entity light--><rect fill="#FEFECE" filter="url(#f1jf4wlu6bk0ms)" height="36.4883" style="stroke: #A80036; stroke-width: 1.5;" width="115" x="514" y="43"/><text fill="#000000" font-family="sans-serif" font-size="14" lengthAdjust="spacingAndGlyphs" textLength="95" x="524" y="66.5352">Light Backend</text><!--entity front--><rect fill="#FEFECE" filter="url(#f1jf4wlu6bk0ms)" height="36.4883" style="stroke: #A80036; stroke-width: 1.5;" width="129" x="312" y="43"/><text fill="#000000" font-family="sans-serif" font-size="14" lengthAdjust="spacingAndGlyphs" textLength="109" x="322" y="66.5352">Front Container</text><!--entity envoy--><rect fill="#FEFECE" filter="url(#f1jf4wlu6bk0ms)" height="36.4883" style="stroke: #A80036; stroke-width: 1.5;" width="129" x="312" y="218"/><text fill="#000000" font-family="sans-serif" font-size="14" lengthAdjust="spacingAndGlyphs" textLength="109" x="322" y="241.5352">Envoy container</text><!--entity backend--><rect fill="#FEFECE" filter="url(#f1jf4wlu6bk0ms)" height="36.4883" style="stroke: #A80036; stroke-width: 1.5;" width="148" x="357.5" y="533"/><text fill="#000000" font-family="sans-serif" font-size="14" lengthAdjust="spacingAndGlyphs" textLength="128" x="367.5" y="556.5352">Busy loop backend</text><!--entity bench--><rect fill="#FEFECE" filter="url(#f1jf4wlu6bk0ms)" height="36.4883" style="stroke: #A80036; stroke-width: 1.5;" width="191" x="6" y="43"/><text fill="#000000" font-family="sans-serif" font-size="14" lengthAdjust="spacingAndGlyphs" textLength="171" x="16" y="66.5352">Benchmark App (Gatling)</text><!--link bench to front--><path d="M197.2956,61 C233.1972,61 273.2886,61 306.4326,61 " fill="none" id="bench-front" style="stroke: #A80036; stroke-width: 1.0;"/><polygon fill="#A80036" points="311.6907,61,302.6907,57,306.6907,61,302.6907,65,311.6907,61" style="stroke: #A80036; stroke-width: 1.0;"/><text fill="#000000" font-family="sans-serif" font-size="13" lengthAdjust="spacingAndGlyphs" textLength="78" x="215.5" y="54.5684">busy service</text><!--link bench to front--><path d="M194.5807,79.0366 C226.1633,82.9317 261.6381,84.8666 294,81 C298.2072,80.4973 302.5099,79.8553 306.8337,79.1116 " fill="none" id="bench-front" style="stroke: #A80036; stroke-width: 1.0;"/><polygon fill="#A80036" points="311.9146,78.194,302.3469,75.8574,306.9942,79.0827,303.7689,83.73,311.9146,78.194" style="stroke: #A80036; stroke-width: 1.0;"/><text fill="#000000" font-family="sans-serif" font-size="13" lengthAdjust="spacingAndGlyphs" textLength="77" x="216" y="77.5684">light service</text><!--link front to envoy--><path d="M376.5,79.0689 C376.5,110.9002 376.5,176.9453 376.5,212.3568 " fill="none" id="front-envoy" style="stroke: #A80036; stroke-width: 1.0;"/><polygon fill="#A80036" points="376.5,217.7672,380.5,208.7672,376.5,212.7672,372.5,208.7672,376.5,217.7672" style="stroke: #A80036; stroke-width: 1.0;"/><text fill="#000000" font-family="sans-serif" font-size="13" lengthAdjust="spacingAndGlyphs" textLength="59" x="377.5" y="153.5684">via envoy</text><!--link front to backend--><path d="M420.8001,79.0715 C447.9375,93.393 477.5,116.3682 477.5,148.5 C477.5,148.5 477.5,148.5 477.5,471.5 C477.5,492.9262 464.8274,513.7619 452.7853,528.7242 " fill="none" id="front-backend" style="stroke: #A80036; stroke-width: 1.0;"/><polygon fill="#A80036" points="449.4165,532.7842,458.2418,528.4122,452.6093,528.9363,452.0852,523.3038,449.4165,532.7842" style="stroke: #A80036; stroke-width: 1.0;"/><text fill="#000000" font-family="sans-serif" font-size="13" lengthAdjust="spacingAndGlyphs" textLength="36" x="478.5" y="328.5684">direct</text><!--link front to light--><path d="M441.1613,61 C462.9202,61 487.1498,61 508.7584,61 " fill="none" id="front-light" style="stroke: #A80036; stroke-width: 1.0;"/><polygon fill="#A80036" points="513.9023,61,504.9023,57,508.9023,61,504.9023,65,513.9023,61" style="stroke: #A80036; stroke-width: 1.0;"/><text fill="#000000" font-family="sans-serif" font-size="13" lengthAdjust="spacingAndGlyphs" textLength="36" x="459.5" y="54.5684">direct</text><!--link envoy to backend--><path d="M377.1549,254.096 C377.7382,271.7883 378.5,299.492 378.5,323.5 C378.5,323.5 378.5,323.5 378.5,471.5 C378.5,493.8265 393.1503,514.6518 407.0459,529.3829 " fill="none" id="envoy-backend" style="stroke: #A80036; stroke-width: 1.0;"/><polygon fill="#A80036" points="410.553,532.994,407.1519,523.751,407.0694,529.4073,401.4132,529.3248,410.553,532.994" style="stroke: #A80036; stroke-width: 1.0;"/><text fill="#000000" font-family="sans-serif" font-size="13" lengthAdjust="spacingAndGlyphs" textLength="59" x="379.5" y="406.5684">via envoy</text><!--
@startuml

agent bench as "Benchmark App (Gatling)"

cloud docker as "Docker for Mac" {
  agent light as "Light Backend"
  agent front as "Front Container"
  agent envoy as "Envoy container"
  agent backend as "Busy loop backend"

  bench -> front : "busy service"
  bench -> front : "light service"
  front - -> envoy : "via envoy"
  front - - -> backend : "direct"
  front -> light : "direct"
  envoy - - -> backend : "via envoy"
}

@enduml

PlantUML version 1.2018.01(Mon Jan 29 03:08:22 JST 2018)
(GPL source distribution)
Java Runtime: OpenJDK Runtime Environment
JVM: OpenJDK 64-Bit Server VM
Java Version: 1.8.0_152-release-1248-b8
Operating System: Mac OS X
OS Version: 10.13.6
Default Encoding: UTF-8
Language: ja
Country: JP
--></g></svg>